FCA!35 An Evening With Peter Frampton Mkv 1080p Dts

Tracklisting:

1. Somethin's Happening
2. Doobie Wah
3. Lines On My Face
4. Show Me the Way
5. It's A Plain Shame
6. Wind of Change
7. Penny For Your Thoughts
8. All I Wanna Be (Is By Your Side)
9. Baby, I Love Your Way
10. (I Wanna) Go to the Sun
11. (I'll Give You) Money
12. Shine On
13. Jumpin' Jack Flash
14. Do You Feel Like We Do
15. Asleep at the Wheel
16. Restraint
17. Float
18. Boot It Up
19. Double Nickels
20. Vaudeville Nanna And The Banjolele
21. Road to the Sun
22. I Don't Need No Doctor
23. Black Hole Sun
24. Four Day Creep
25. Off the Hook
26. While My Guitar Gently Weeps

General 
Unique ID : 242261205228722668457791057500816797522 (0xB641CF9A81B19162B492DCF7C21BEF52) 
FCA!35 An Evening With Peter Frampton Mkv 1080p Dts.mkv 
Format : Matroska 
Format version : Version 2 
File size : 7.34 GiB 
Duration : 2h 46mn 
Overall bit rate mode : Variable 
Overall bit rate : 6 312 Kbps 
Movie name : video 
Encoded date : UTC 2012-11-22 15:11:37 
Writing application : mkvmerge v5.7.0 ('The Whirlwind') built on Jul 8 2012 20:08:51 
Writing library : libebml v1.2.3 + libmatroska v1.3.0 

Video 
ID : 1 
Format : AVC 
Format/Info : Advanced Video Codec 
Format profile : High@L4.0 
Format settings, CABAC : Yes 
Format settings, ReFrames : 3 frames 
Codec ID : V_MPEG4/ISO/AVC 
Duration : 2h 46mn 
Bit rate mode : Variable 
Bit rate : 4 677 Kbps 
Maximum bit rate : 25.0 Mbps 
Width : 1 920 pixels 
Height : 1 080 pixels 
Display aspect ratio : 16:9 
Frame rate mode : Constant 
Frame rate : 23.976 fps 
Color space : YUV 
Chroma subsampling : 4:2:0 
Bit depth : 8 bits 
Scan type : Progressive 
Bits/(Pixel*Frame) : 0.094 
Stream size : 5.44 GiB (74%) 
Writing library : x264 core 125 r2208 d9d2288 
Encoding settings : cabac=1 / ref=3 / deblock=1:0:0 / analyse=0x3:0x113 / me=hex / subme=7 / psy=1 / psy_rd=1.00:0.00 / mixed_ref=1 / me_range=16 / chroma_me=1 / trellis=1 / 8x8dct=1 / cqm=0 / deadzone=21,11 / fast_pskip=1 / chroma_qp_offset=-2 / threads=12 / lookahead_threads=2 / sliced_threads=0 / nr=0 / decimate=1 / interlaced=0 / bluray_compat=0 / constrained_intra=0 / bframes=3 / b_pyramid=0 / b_adapt=1 / b_bias=0 / direct=1 / weightb=1 / open_gop=0 / weightp=2 / keyint=240 / keyint_min=24 / scenecut=40 / intra_refresh=0 / rc_lookahead=40 / rc=crf / mbtree=1 / crf=24.0 / qcomp=0.60 / qpmin=0 / qpmax=69 / qpstep=4 / vbv_maxrate=25000 / vbv_bufsize=25000 / crf_max=0.0 / nal_hrd=vbr / ip_ratio=1.40 / aq=1:1.00 
Default : Yes 
Forced : No 

Audio 
ID : 2 
Format : DTS 
Format/Info : Digital Theater Systems 
Mode : 16 
Format settings, Endianness : Big 
Codec ID : A_DTS 
Duration : 2h 46mn 
Bit rate mode : Constant 
Bit rate : 1 509 Kbps 
Channel(s) : 6 channels 
Channel positions : Front: L C R, Side: L R, LFE 
Sampling rate : 48.0 KHz 
Bit depth : 24 bits 
Compression mode : Lossy 
Stream size : 1.75 GiB (24%) 
Language : English 
Default : Yes 
Forced : No 

Menu 
00:00:00.000 : en:00:00:00.000 
00:07:20.106 : en:00:07:20.106 
00:13:30.643 : en:00:13:30.643 
00:23:59.355 : en:00:23:59.355 
00:28:46.725 : en:00:28:46.725 
00:33:12.908 : en:00:33:12.908 
00:36:22.847 : en:00:36:22.847 
00:38:26.554 : en:00:38:26.554 
00:42:28.880 : en:00:42:28.880 
00:47:41.609 : en:00:47:41.609 
00:55:48.095 : en:00:55:48.095 
01:06:13.803 : en:01:06:13.803 
01:10:09.622 : en:01:10:09.622 
01:18:17.109 : en:01:18:17.109 
01:38:45.837 : en:01:38:45.837 
01:47:27.941 : en:01:47:27.941 
01:51:19.840 : en:01:51:19.840 
01:55:34.511 : en:01:55:34.511 
01:59:19.819 : en:01:59:19.819 
02:04:35.301 : en:02:04:35.301 
02:10:18.978 : en:02:10:18.978 
02:16:01.403 : en:02:16:01.403 
02:21:16.301 : en:02:21:16.301 
02:27:03.481 : en:02:27:03.481 
02:30:23.014 : en:02:30:23.014 
02:35:34.742 : en:02:35:34.742 
02:45:28.919 : en:02:45:28.919 
